#!OML:ASF H:\BreakDance\Project 1\Capture day 1\Session 1\Male.ASF
:FULLY-SPECIFIED
:DEGREES
911
root -16.8425 14.0096 6.1754 -359.4 146.684 230.78
lowerback 0.922297 -7.55387 2.09317
upperback -0.770041 -10.0405 3.27067
thorax -1.07221 -5.03671 2.36984
lowerneck -8.88594 -0.0721581 8.23281
upperneck 169.511 -178.252 -201.377
head 178.305 -179.518 -188.108
rclavicle -3.81667e-014 3.65764e-014
rhumerus 38.9339 -17.4894 -24.4416
rradius 42.951
rwrist -15.5095
rhand -46.2791 -439.078
rfingers 7.12502
rthumb -19.0141 -611.832
lclavicle -3.81667e-014 3.65764e-014
lhumerus 70.7979 -16.7549 9.16299
lradius 36.5267
lwrist 51.2391
lhand -46.6702 362.711
lfingers 7.12502
lthumb -19.3902 31.7638
rfemur 4.07263 14.6033 -7.66401
rtibia 10.0251
rfoot -5.99215 -25.5185
rtoes -44.1563
lfemur -53.0893 7.19311 -3.51213
ltibia 68.1659
lfoot -17.01 14.565
ltoes -46.5369
912
root -16.7938 14.027 6.19666 -359.016 151.923 231.327
lowerback -0.130294 -7.98244 2.60899
upperback -1.03237 -10.6582 3.72389
thorax -0.750865 -5.35819 2.42598
lowerneck -8.7768 -0.415798 7.92662
upperneck 169.975 -177.854 -201.516
head 178.359 -179.315 -188.095
rclavicle 1.74931e-014 2.22639e-014
rhumerus 36.5174 -19.8344 -22.9836
rradius 43.7843
rwrist -13.8458
rhand -46.4925 -437.939
rfingers 7.12502
rthumb -19.2194 -612.991
lclavicle 1.74931e-014 2.22639e-014
lhumerus 72.3816 -15.673 7.66687
lradius 37.3534
lwrist 48.8558
lhand -35.5471 361.829
lfingers 7.12502
lthumb -8.67271 31.6304
rfemur 2.4222 16.657 -8.36329
rtibia 14.9289
rfoot -5.00148 -26.3185
rtoes -42.9821
lfemur -52.5206 7.63235 -5.67657
ltibia 65.9484
lfoot -16.7855 14.2226
ltoes -46.3483
913
root -16.7553 14.0439 6.21776 -358.703 157.072 231.96
lowerback -1.24443 -8.3795 3.2357
upperback -1.28623 -11.2501 4.09371
thorax -0.427632 -5.6653 2.31911
lowerneck -8.60091 -0.761656 7.56198
upperneck 170.616 -177.496 -201.504
head 178.459 -179.118 -188.016
rclavicle 6.20208e-014 -4.13472e-014
rhumerus 33.8552 -22.051 -21.3073
rradius 44.6898
rwrist -12.2961
rhand -46.7342 -436.892
rfingers 7.12502
rthumb -19.4518 -614.061
lclavicle 6.20208e-014 -4.13472e-014
lhumerus 73.4677 -13.8407 5.96897
lradius 38.5913
lwrist 46.5575
lhand -23.0773 359.334
lfingers 7.12502
lthumb 3.36846 29.2874
rfemur 1.17151 18.6834 -8.87626
rtibia 19.79
rfoot -4.641 -25.7551
rtoes -39.6547
lfemur -51.786 8.16229 -7.68955
ltibia 63.6353
lfoot -16.8037 13.3032
ltoes -45.7504
914
root -16.7293 14.0588 6.23768 -358.511 162.03 232.678
lowerback -2.35792 -8.73707 3.90928
upperback -1.54572 -11.8045 4.38451
thorax -0.14377 -5.95203 2.10077
lowerneck -8.35451 -1.09547 7.12832
upperneck 171.477 -177.203 -201.352
head 178.622 -178.939 -187.873
rclavicle -2.22639e-014 -1.30403e-013
rhumerus 30.9876 -24.0098 -19.4195
rradius 45.5929
rwrist -10.8687
rhand -47.0106 -435.947
rfingers 7.12502
rthumb -19.7175 -615.033
lclavicle -2.22639e-014 -1.30403e-013
lhumerus 73.8865 -11.4987 3.91141
lradius 40.2766
lwrist 44.5227
lhand -11.1144 355.975
lfingers 7.12502
lthumb 14.9103 25.4184
rfemur 0.271275 20.6171 -9.23764
rtibia 24.6418
rfoot -4.92333 -24.5888
rtoes -34.0233
lfemur -50.8314 8.85605 -9.49121
ltibia 61.2991
lfoot -17.0591 11.7739
ltoes -44.7653
915
root -16.7141 14.0699 6.25465 -358.479 166.678 233.451
lowerback -3.42526 -9.02237 4.5784
upperback -1.79289 -12.2734 4.58313
thorax 0.0987806 -6.19384 1.79408
lowerneck -8.13968 -1.40867 6.65345
upperneck 172.593 -176.988 -201.127
head 178.876 -178.779 -187.697
rclavicle 4.77083e-014 7.95139e-014
rhumerus 27.9575 -25.7012 -17.3551
rradius 46.4295
rwrist -9.56604
rhand -47.331 -435.072
rfingers 7.12502
rthumb -20.0255 -615.94
lclavicle 4.77083e-014 7.95139e-014
lhumerus 73.7926 -9.16497 2.1243
lradius 41.9344
lwrist 42.1996
lhand -0.746305 352.233
lfingers 7.12502
lthumb 24.8754 20.6346
rfemur -0.369435 22.0807 -9.64662
rtibia 29.4247
rfoot -5.4877 -23.3713
rtoes -27.6097
lfemur -49.6079 9.71905 -11.0194
ltibia 58.9775
lfoot -17.5481 9.71204
ltoes -43.0111
916
root -16.706 14.0749 6.26708 -358.622 170.928 234.212
lowerback -4.41013 -9.23044 5.12691
upperback -2.03654 -12.6421 4.69435
thorax 0.296958 -6.38445 1.47282
lowerneck -7.94265 -1.68383 6.12134
upperneck 173.943 -176.873 -200.863
head 179.217 -178.655 -187.502
rclavicle 7.95139e-014 -5.08889e-014
rhumerus 24.8834 -27.0817 -15.173
rradius 47.1523
rwrist -8.42513
rhand -47.6915 -434.14
rfingers 7.12502
rthumb -20.3719 -616.909
lclavicle 7.95139e-014 -5.08889e-014
lhumerus 73.3643 -7.3251 0.994234
lradius 43.1628
lwrist 39.4428
lhand 6.39456 349.011
lfingers 7.12502
lthumb 31.6992 16.2769
rfemur -0.806036 23.2666 -10.2404
rtibia 34.0755
rfoot -5.81445 -22.6553
rtoes -21.8914
lfemur -48.1262 10.7262 -12.244
ltibia 56.6876
lfoot -18.1873 7.18865
ltoes -39.2877
917
root -16.7023 14.0733 6.27386 -358.927 174.744 234.921
lowerback -5.29869 -9.36331 5.48996
upperback -2.28078 -12.9047 4.72813
thorax 0.458471 -6.522 1.18414
lowerneck -7.76733 -1.91394 5.51655
upperneck 175.505 -176.865 -200.577
head 179.641 -178.573 -187.292
rclavicle -1.27222e-014 -8.90555e-014
rhumerus 21.8703 -28.1647 -12.9662
rradius 47.7473
rwrist -7.4167
rhand -48.0584 -433.099
rfingers 7.12502
rthumb -20.7245 -617.987
lclavicle -1.27222e-014 -8.90555e-014
lhumerus 72.7751 -6.1612 0.604806
lradius 43.646
lwrist 36.4108
lhand 9.88639 346.924
lfingers 7.12502
lthumb 35.0186 13.4761
rfemur -1.09599 24.307 -11.1173
rtibia 38.5728
rfoot -5.94704 -22.4947
rtoes -18.5373
lfemur -46.4005 11.8081 -13.1479
ltibia 54.4156
lfoot -18.7372 4.39455
ltoes -32.9904
918
root -16.7005 14.0651 6.27364 -359.369 178.149 235.613
lowerback -6.09934 -9.4368 5.69121
upperback -2.51223 -13.078 4.70678
thorax 0.605102 -6.61448 0.936306
lowerneck -7.55374 -2.10724 5.02309
upperneck 177.132 -176.912 -200.479
head 180.082 -178.519 -187.169
rclavicle -1.27222e-014 1.7175e-013
rhumerus 19.0164 -29.0213 -10.8609
rradius 48.2148
rwrist -6.45143
rhand -48.398 -431.924
rfingers 7.12502
rthumb -21.0508 -619.199
lclavicle -1.27222e-014 1.7175e-013
lhumerus 72.1736 -5.74887 1.14565
lradius 43.1052
lwrist 33.1366
lhand 10.0671 346.16
lfingers 7.12502
lthumb 35.19 12.6719
rfemur -1.32312 25.4005 -12.2129
rtibia 42.993
rfoot -6.07963 -22.5365
rtoes -17.8632
lfemur -44.4712 12.8723 -13.6653
ltibia 52.1585
lfoot -18.9964 1.60437
ltoes -24.4553
919
root -16.7042 14.0526 6.26635 -359.949 181.181 236.34
lowerback -6.80339 -9.65912 5.78572
upperback -2.70066 -13.2395 4.66566
thorax 0.752141 -6.44003 0.740322
lowerneck -7.31116 -2.25776 4.61757
upperneck 178.794 -177.023 -200.483
head 180.535 -178.498 -187.1
rclavicle 2.22639e-014 -1.27222e-013
rhumerus 16.3743 -29.7332 -8.95771
rradius 48.5829
rwrist -5.43563
rhand -48.7006 -430.528
rfingers 7.12502
rthumb -21.3415 -620.628
lclavicle 2.22639e-014 -1.27222e-013
lhumerus 71.4319 -5.74891 2.35221
lradius 41.7
lwrist 29.9051
lhand 7.64269 346.117
lfingers 7.12502
lthumb 32.8872 13.1406
rfemur -1.55689 26.7491 -13.4155
rtibia 47.4349
rfoot -6.84768 -22.2915
rtoes -18.0277
lfemur -42.3773 13.8112 -13.7198
ltibia 49.937
lfoot -18.9048 -0.975509
ltoes -14.7984
920
root -16.7208 14.0387 6.25204 -360.658 183.881 237.134
lowerback -7.40816 -9.6939 5.76547
upperback -2.85955 -13.3072 4.60692
thorax 0.904829 -6.46588 0.595442
lowerneck -7.07019 -2.37563 4.33252
upperneck 180.476 -177.181 -200.572
head 180.999 -178.5 -187.086
rclavicle -3.18055e-015 -8.26944e-014
rhumerus 13.9339 -30.379 -7.31912
rradius 48.898
rwrist -4.31828
rhand -48.983 -428.893
rfingers 7.12502
rthumb -21.6127 -622.293
lclavicle -3.18055e-015 -8.26944e-014
lhumerus 70.3373 -5.72215 3.6975
lradius 39.8958
lwrist 27.2019
lhand 3.90915 345.86
lfingers 7.12502
lthumb 29.329 13.5663
rfemur -1.85341 28.4812 -14.6473
rtibia 51.98
rfoot -8.48299 -21.7653
rtoes -17.3676
lfemur -40.1843 14.5159 -13.2746
ltibia 47.8021
lfoot -18.4864 -3.25465
ltoes -5.94631
921
root -16.7603 14.0249 6.23192 -361.479 186.269 237.978
lowerback -7.91021 -9.69822 5.66798
upperback -2.97514 -13.3247 4.50732
thorax 1.05498 -6.46931 0.464613
lowerneck -6.87845 -2.48661 4.21747
upperneck 182.207 -177.351 -200.717
head 181.484 -178.504 -187.126
rclavicle 1.04958e-013 -6.36111e-015
rhumerus 11.6404 -31.0164 -5.97431
rradius 49.173
rwrist -3.08857
rhand -49.1999 -427.267
rfingers 7.12502
rthumb -21.821 -623.943
lclavicle 1.04958e-013 -6.36111e-015
lhumerus 68.9703 -5.64402 5.50658
lradius 37.803
lwrist 24.4483
lhand 0.14758 344.806
lfingers 7.12502
lthumb 25.7317 13.0863
rfemur -2.21401 30.6782 -15.9291
rtibia 56.5635
rfoot -10.9231 -20.7444
rtoes -13.9242
lfemur -37.9684 14.9328 -12.3717
ltibia 45.7825
lfoot -17.8236 -5.18805
ltoes 0.803162
922
root -16.8297 14.0119 6.2067 -362.386 188.358 238.802
lowerback -8.29123 -9.68027 5.43639
upperback -3.04739 -13.2928 4.3355
thorax 1.19834 -6.45075 0.349018
lowerneck -6.72814 -2.58962 4.23383
upperneck 183.934 -177.522 -200.788
head 181.974 -178.509 -187.172
rclavicle 2.09917e-013 5.40694e-014
rhumerus 9.43215 -31.6342 -4.89665
rradius 49.3953
rwrist -1.81397
rhand -49.3467 -425.747
rfingers 7.12502
rthumb -21.9619 -625.48
lclavicle 2.09917e-013 5.40694e-014
lhumerus 67.4089 -5.4426 7.97611
lradius 35.5261
lwrist 21.1308
lhand -3.43002 343.56
lfingers 7.12502
lthumb 22.3012 12.2935
rfemur -2.63255 33.2909 -17.3543
rtibia 61.0526
rfoot -13.7969 -19.1124
rtoes -7.30393
lfemur -35.7751 14.9987 -11.1175
ltibia 43.8899
lfoot -17.0256 -6.80054
ltoes 5.6442
